<?xml version="1.0" encoding="utf-8"?>
<svg id="master-artboard" viewBox="0 0 1109.51025390625 134.81939697265625" version="1.1" xmlns="http://www.w3.org/2000/svg" x="0px" y="0px" style="enable-background:new 0 0 1400 980;" width="1109.51025390625px" height="134.81939697265625px"><rect id="ee-background" x="0" y="0" width="1109.51025390625" height="134.81939697265625" style="fill: white; fill-opacity: 0; pointer-events: none;"/><defs><style id="ee-google-fonts">@import url(https://fonts.googleapis.com/css?family=Rubik:300,300italic,400,400italic,500,500italic,700,700italic,900,900italic);</style><radialGradient id="gradient-0" gradientUnits="objectBoundingBox" cx="1.2271379232406616" cy="0.9518609046936035" r="0.5">
                <stop offset="0" style="stop-color: #ffffff"/>
                <stop offset="1" style="stop-color: #cccccc"/>
              </radialGradient></defs>








































<g transform="matrix(1.6270070075988772, 0, 0, 1.6270070075988772, -3.43298381301571, -359.1514969600829)"><g transform="matrix(0.5235042572021484, 0, 0, 0.5235042572021484, -34.15477752685547, -38.421001434326186)">
			<path fill="#CCCCCC" d="M1341.8,530.1c0.5,1.3,1.5,2.3,3.3,2.3c5.7,0.1,24.8-0.7,24.5-5c-0.3-4.3-3-18-27.8-5&#10;&#9;&#9;&#9;&#9;c0,0-0.1,0.2-0.1,0.6c-5.7,1.6-9.7,5.9-12.1,9.4c-10.9-4.5-24.9-7.8-37.6-10.2c1.7-2.7,4-5.4,6.7-6.2c0.5,0.4,1,0.7,1.6,1&#10;&#9;&#9;&#9;&#9;c4.4,1.8,20.8-0.2,21.4-1.9c0.7-1.7,4.3-21-25.8-5.2c-5.4,2-9,7.5-11,11.2c-14.1-2.4-25.3-3.5-26.5-3.6c-0.2,0-0.5,0-0.7,0.1&#10;&#9;&#9;&#9;&#9;c-9.2,3.3-89.4,31.9-90.3,32.3c-1.3,0.5-2.2,1.5-2.8,2.9c-1.6,4.2,1.5,11.1,1.9,11.9c0.2,0.4,0.5,0.7,0.9,0.8&#10;&#9;&#9;&#9;&#9;c0.3,0.1,1.2,0.5,2.7,1.2c-0.3,0.5-0.6,1-0.8,1.6c-0.5,1.6-0.7,4,1.8,6.8c1,1.1,3.6,2.8,7.2,4.8c-0.7,2.5-1.9,6.9-3,11.5&#10;&#9;&#9;&#9;&#9;c-2.9,12.6-2.7,16.9,0.9,18.5c0.6,0.3,1.4,0.7,2.4,1.3c-0.3,2.1-0.5,4.4-0.6,6.8c-0.3,12.2,2.5,21.5,8.4,27.6&#10;&#9;&#9;&#9;&#9;c6.3,6.5,13.8,6.8,13.9,6.8c0,0,0,0,0,0s0,0,0,0c1,0,25.5-0.2,37.2-16.2c5.1-6.9,6.9-15.7,5.6-26.1c0.8-1.3,1.6-2.6,2.5-4.1&#10;&#9;&#9;&#9;&#9;c2.3,0,4.9,0.1,7.6,0.1c0.6,1.7,1.3,3.5,2,5.3c4.5,11.1,8.3,15.9,12.8,15.9c0.1,0,0.3,0,0.5,0c4.5-0.3,7.9-5.4,11.1-16.6&#10;&#9;&#9;&#9;&#9;c0.4-1.4,0.8-2.8,1.1-4.2c0.4,0,0.8,0,1.2,0c1.8,3.2,5.8,10.4,10.1,17.5c11,18.1,14,20.3,16.7,20.3c0.2,0,0.3,0,0.5,0&#10;&#9;&#9;&#9;&#9;c2.6-0.2,5.1-1.9,13.7-21c4.2-9.3,8-18.8,8-18.9c0.4-0.9,0.3-2-0.1-2.8c0.1-0.3,0.2-0.5,0.2-0.7c0.6-2.7-0.7-5.5-2.5-7.8&#10;&#9;&#9;&#9;&#9;c1.5-0.7,2.6-1.4,3.3-2.2c8.2-9.6,14.8-43.7,15.1-45.1c0.1-0.4,0-0.8-0.2-1.2c-2-3.3-5.9-6.3-10.9-9&#10;&#9;&#9;&#9;&#9;C1337.2,533.3,1339.2,531.2,1341.8,530.1z M1281.6,594c-20.9,0-40.6-1.3-43.2-2.2c-5.6-1.9-62.6-26.5-69.1-29.4&#10;&#9;&#9;&#9;&#9;c-0.9-2-2.4-6.4-1.5-8.6c0.2-0.5,0.5-0.8,0.9-0.9c1.2-0.5,59.1-21.1,89.8-32.1c2.8,0.3,20.2,2.1,38.6,5.9&#10;&#9;&#9;&#9;&#9;c25.4,5.2,41.4,11.7,46.2,18.8c-1,4.9-7.2,34.7-14.2,42.9C1327.9,589.7,1321.1,594,1281.6,594z M1234.6,633.9&#10;&#9;&#9;&#9;&#9;c-10.5,14.3-33.3,14.8-34.4,14.8c-1.2-0.1-19.7-1.7-18.9-30.8c0.5-18.3,8.1-26.1,14.1-29.4c5,2.4,10.3,4.9,15.2,7.1&#10;&#9;&#9;&#9;&#9;c-14,7.9-11.7,46.1-2,47.3c9.9,1.2,27.1-1.4,28.9-24.9c0.7-1,1.5-2.2,2.4-3.5C1240.2,622.2,1238.4,628.7,1234.6,633.9z&#10;&#9;&#9;&#9;&#9; M1222.8,589.1c6.8,3.4,12.1,8,14,9.7c-1,0-1.9,0-2.8-0.1c-9.9-4.3-20-9-29.1-13.2c1.1-0.2,2.3-0.3,3.5-0.3c3,0,6.1,0.6,9,1.6&#10;&#9;&#9;&#9;&#9;C1219.2,587.6,1221,588.4,1222.8,589.1z M1236.4,607.5c-0.3-0.7-0.6-1.4-0.9-2.1c0.6,0,1.4,0,2.2,0&#10;&#9;&#9;&#9;&#9;C1237.3,606.2,1236.8,606.8,1236.4,607.5z M1275.5,597.4c-0.1,0.7-0.3,1.4-0.4,2c-5.7-0.1-11.5-0.1-17.2-0.2&#10;&#9;&#9;&#9;&#9;c-0.3-0.9-0.5-1.7-0.7-2.3C1262.7,597.1,1269,597.3,1275.5,597.4z M1176,570.4c-0.1-0.1-0.2-0.2-0.2-0.3c0.3-0.2,0.8-0.4,1.3-0.6&#10;&#9;&#9;&#9;&#9;c7.5,3.2,18.3,7.9,28.7,12.4c-1.3,0.1-2.5,0.4-3.8,0.7c-0.4,0-1.2,0.2-2.4,0.5C1187.1,577,1177.6,572.1,1176,570.4z&#10;&#9;&#9;&#9;&#9; M1184.8,583.2c2.2,1.1,4.5,2.3,7,3.5c-0.5,0.3-1,0.7-1.5,1.1c-3.3,2.6-7.1,7-9.6,14C1181.1,597.7,1182.9,590.2,1184.8,583.2z&#10;&#9;&#9;&#9;&#9; M1243.8,598.9c-0.1,0-0.2,0-0.3,0c-1,0-2,0-3-0.1c-0.1-0.4-0.2-0.8-0.4-1.2c-0.1-0.3-0.2-0.5-0.4-0.7c-0.1-0.1-0.8-0.8-1.9-1.7&#10;&#9;&#9;&#9;&#9;c1.8,0.4,6.2,0.9,12.2,1.3c0,0.1,0,0.1,0,0.2c0,0.1,0.3,1,0.7,2.4C1248.4,599,1246.1,599,1243.8,598.9z M1267.9,620.2&#10;&#9;&#9;&#9;&#9;c-0.7-0.5-3.2-2.9-7-12.7c-0.2-0.5-0.4-1.1-0.6-1.6c4.3,0.1,8.8,0.1,13.4,0.2C1271.7,613.3,1269.5,618.9,1267.9,620.2z&#10;&#9;&#9;&#9;&#9; M1308.4,636.4c-3.7-4.1-11.8-17.3-19-30.1c2.5,0,4.9,0,7.3,0c11.4,0,21.2-0.2,26.2-0.6C1317.6,618.5,1311.5,631.9,1308.4,636.4z&#10;&#9;&#9;&#9;&#9; M1324.2,598.8c0,0-0.1,0-0.1,0c-2.8,0.8-21,0.9-42.1,0.7c0.2-0.8,0.3-1.5,0.4-2.1c17.6,0,30.6-0.9,39-2.6&#10;&#9;&#9;&#9;&#9;C1322.7,596.3,1323.8,597.8,1324.2,598.8z" style="fill: rgb(51, 51, 51);"/>
			<path fill="#CCCCCC" d="M1324.4,540.4c-5.8-2.3-13.5-4.9-22.5-7.5c-15.2-4.4-34.5-8.8-41.9-8.8c-0.8,0-1.5,0.1-2,0.2&#10;&#9;&#9;&#9;&#9;c-0.5,0.1-1,0.2-1.8,0.4c-0.9,0.2-1.5,1.2-1.2,2.1c0,0,0,0,0,0c-17.6,4.8-82.7,26.7-82.7,26.7l27.7,11.4&#10;&#9;&#9;&#9;&#9;c-0.1,0.1-0.1,0.3-0.1,0.4c-0.1,0.8,0.3,1.5,1,1.8l32.4,13.3c0.2,0.1,0.4,0.1,0.6,0.1c0.1,0,0.3,0,0.4-0.1&#10;&#9;&#9;&#9;&#9;c0.3-0.1,33-8.3,60.7-16.1c34.9-9.8,38.5-12.3,39.6-13.1c1.2-0.8,1.7-2.1,1.3-3.4C1335.5,546.4,1333.8,544.2,1324.4,540.4z&#10;&#9;&#9;&#9;&#9; M1230.5,560.2c8.4-3.7,17.7-5.6,26.9-5.6c0.7,0,1.4,0,2.1,0c3.6,0.1,7.1,0.5,10.6,1.2c0,0,0,0,0.1,0c0.8,0.2,1.6,0.4,2.5,0.6&#10;&#9;&#9;&#9;&#9;c0.1,0,0.1,0,0.2,0c0.8,0.2,1.6,0.4,2.3,0.6c0.1,0,0.2,0.1,0.3,0.1c0.8,0.2,1.5,0.5,2.3,0.7c0.1,0,0.1,0.1,0.2,0.1&#10;&#9;&#9;&#9;&#9;c0.8,0.3,1.5,0.6,2.3,0.9c0,0,0,0,0.1,0c2.7,1,5.4,2.1,8,3.1c0.3,0.1,0.6,0.3,1,0.4c-24.5,6.8-51.1,13.5-55.2,14.5l-26.2-10.8&#10;&#9;&#9;&#9;&#9;C1215.4,564.9,1223.2,563.2,1230.5,560.2z M1294.7,560.9c-1.7-0.7-3.4-1.4-5.1-2c-2.6-1.1-5.4-2.2-8.2-3.2&#10;&#9;&#9;&#9;&#9;c-6.3-2.5-13.1-4-20.2-4.4c0.1-8.1-0.8-15.9-2.6-23.7c0.2,0,0.6-0.1,1.3-0.1c6.1,0,23.7,3.7,40.7,8.6&#10;&#9;&#9;&#9;&#9;c21.1,6.1,30.4,10.7,31.9,12.5C1330.3,550,1321.7,553.3,1294.7,560.9z" style="fill: rgb(51, 51, 51);"/>
		</g></g></svg>